<svg xmlns="http://www.w3.org/2000/svg" version="1.1" xmlns:xlink="http://www.w3.org/1999/xlink" xmlns:svgjs="http://svgjs.dev/svgjs" width="2000" height="2250" viewBox="0 0 2000 2250"><g transform="matrix(1,0,0,1,0.00014687500004129106,0)"><svg viewBox="0 0 320 360" data-background-color="#ffffff" preserveAspectRatio="xMidYMid meet" height="2250" width="2000" xmlns="http://www.w3.org/2000/svg" xmlns:xlink="http://www.w3.org/1999/xlink"><g id="tight-bounds" transform="matrix(1,0,0,1,0.000023499999997511622,0)"><svg viewBox="0 0 320 360" height="360" width="320"><g><svg></svg></g><g><svg viewBox="0 0 320 360" height="360" width="320"><g><path transform="translate(-74.99272,-51.79039) scale(4.65793,4.65793)" d="M20.6 59.9l0.8 1-0.4-1.3c-0.1-0.6-0.8 0.1-0.4 0.3M21.5 59.3c0.3 0.5 0.6 1 0.6 1.5 0 0.7 0.6 1 1.1 1.2-0.7-0.8-1.1-3-1.7-2.7M59.9 16.9c1.7 0 3.3-0.2 5.1 0.2 4.4 1.1 8.1 3.3 10.6 6.4l7 11.2c0.3 2.8 0.9 5.9 0.8 9.3 0.7 0 0.6-1 1.4-1.2-0.8 2-1.2 4.5-1.4 7.4-0.5-1.6 0-4 0.1-5.3-0.7 1.1-1.1 0.3-1.1-0.2 0.1-0.8-0.3-0.7-0.6-1-1.1-1-1.8-2.1-2.6-3.8 0.5-1.3 0.6-3.2-1-4.2-0.5-0.3-1.1-0.8-1.4-1.6-0.4-1.1-1.1-2.4-0.9-4.1 0.1-0.5-1.5 1.1-2.4 0.4-3.9-2.7-7.8-5.8-12.5-8.4-2.5 0-4.3-0.9-5.2-2-0.8-1-0.2-2.3 1-2.4 0.7 0 1.5-0.2 2.1 0.2 0.1-0.4 0.5-0.9 1-0.9M50 14.6l0.2 0.1c1 0.2 1.5 1.6 2.6 1.1 0 0.7 0.1 1.4-0.1 1.9-0.3 0.8-1.2 0.8-1.9 0.8-6.7-0.4-10.6 2.4-14.7 4.8-1.1 0.7-2.3 1.2-3.2 2.1-4.3 4-9 7.7-10.1 15.1l-0.9 8.2c-0.1 0.9-1.1 1.8-0.9 2.9l0.7 4.9c-0.7-0.7-1.1 0.2-0.9 0.6 0.1 0.3 0.5 1.3 1.1 0.4 0.8 1.5 1.6 4.4 2.7 5.7 3.4 4 7.8 7.6 11.4 11.2 0.9-0.2 1.6-0.2 1.8-0.8 0.3 0.6-0.3 1.2-0.8 1.3 1.6 1 3.4 1.9 5.8 2.1 3.1 0.2 6 0.7 8.7 1.4 1.4-0.4 2.8-0.6 4.3-0.7 0.5 0 0.8-0.8 1.4-1l0.1-1c0.6 0.9 0.5-0.3 0.1-0.9 0.7 0.6 0.9 1.1 1.2 1.5 0-0.3 0.8-1.4 0.8-0.1l0.2-1.3c0.3-0.2 0.4 1.1 0.7 0.2 0.3-0.9 0.9-0.2 1.5-0.5-0.2 0.4-0.1 1.2 0.6 0.7l0.8-0.7c0.5 1.2 1.3 0.7 1.7 0.5 4.4-2.8 8.8-6.1 13-9.4l-0.1 1.3 0.5-1.6c0.5 0.5 0.9 0.1 1.1-0.2 0.6-1 1.4-2 2.7-2.9-1.6 4.3-3.5 7.7-5.9 10.5l-1 1.2c0 0.7-0.2 1.6-1 1.7-0.4 0.1-1.2-0.2-1.8 0.4-0.3 0.4 0.7 1.2-0.1 0.6-0.7-0.5-1.4 0-2.2 0.2-0.6 0.2 0.4 0.8 0.6 1.2 0.2 0.4 0.4 0.8 0.3 1.3l-1.1-1.2c-1.3 0.7-2.1 2-3.2 3-0.5 0.4-0.3 1.1-0.3 1.7-0.7 0-1.5-0.2-1.9 0.2-0.3 0.4-0.2 1-0.2 1.6-1-0.1-1.1-1.6-2-1.3-0.9 0.2-1.9 0.3-2.7 0.8 0.6 1.2-1 0.5-0.8 0.7-1.5-0.9-2.8-1.6-4.4-1-3.4-1.1-7.6-0.6-10.7-0.2 0-0.5 0.1-1-0.1-1.1-0.2 0.5-0.8 0.3-0.7 0.3-1.9-1.3-3.8-2.1-5.8-3.2-1.8 0.2-3.5-0.7-4-1.2-1.4-1.3-3-0.6-4.3-0.9-2.8-0.7-3.8-3.6-4.1-5.6-0.2-1-1-1.4-1.3-1.3-1.3-4.2-3.3-8-4.9-11.9-0.4-1-0.3-2-0.3-3.1 0.5 0.2 1 0.1 0.9-0.6-0.5-3.3-1.7-5.8-3-8.2 0.7-3.4 0.8-7.4 2.4-10.4 1.4-2.7 4-4.1 5.8-6.4 0.6-0.8 0.6-1.9 1.2-2.6 2-2 4-4.1 6.2-5.9 1-0.8 2.2 0 3.7-0.3 0.5-1.8 2.5-3.4 4.4-2.9 0.8 0.2 2.4-1.9 2.9-2.1 0.8-0.3 0.4 0.8 0.4 1.5 1.9-1.5 4.5-2.3 6.9-3.2" fill="#bb84e8" fill-rule="nonzero" stroke="none" stroke-width="1" stroke-linecap="butt" stroke-linejoin="miter" stroke-miterlimit="10" stroke-dasharray="" stroke-dashoffset="0" font-family="none" font-weight="none" font-size="none" text-anchor="none" style="mix-blend-mode: normal" data-fill-palette-color="tertiary"></path></g><g transform="matrix(1,0,0,1,64,152.9387087845508)"><svg viewBox="0 0 192 54.12258243089838" height="54.12258243089838" width="192"><g><svg viewBox="0 0 305.6605140892677 86.16216859201649" height="54.12258243089838" width="192"><g><rect width="3.628118142492052" height="86.16216859201649" x="100.53470447428334" y="0" fill="#bb84e8" opacity="1" stroke-width="0" stroke="transparent" fill-opacity="1" class="rect-qz-0" data-fill-palette-color="primary" rx="1%" id="qz-0" data-palette-color="#bb84e8"></rect></g><g transform="matrix(1,0,0,1,113.66051408926768,0.21433375271645616)"><svg viewBox="0 0 192 85.73350108658357" height="85.73350108658357" width="192"><g id="textblocktransform"><svg viewBox="0 0 192 85.73350108658357" height="85.73350108658357" width="192" id="textblock"><g><svg viewBox="0 0 192 85.73350108658357" height="85.73350108658357" width="192"><g transform="matrix(1,0,0,1,0,0)"><svg width="192" viewBox="1.0999999999999979 -36.43 219.83 93.44999999999999" height="85.73350108658357" data-palette-color="#bb84e8"><svg></svg><svg></svg><g class="wordmark-text-0" data-fill-palette-color="primary" id="text-0"><path d="M35.15-36.43l-4.5 36.43h-8.2l1.9-15.5h-13.15l-1.9 15.5h-8.2l4.5-36.43h8.2l-1.9 15.38h13.15l1.9-15.38zM60.38-25.18l-3.15 25.18h-4.15c-0.487 0-0.893-0.063-1.22-0.19-0.32-0.127-0.577-0.297-0.77-0.51-0.193-0.22-0.327-0.48-0.4-0.78-0.073-0.3-0.11-0.623-0.11-0.97v0-1.85c-1.067 1.467-2.25 2.617-3.55 3.45-1.3 0.833-2.733 1.25-4.3 1.25v0c-0.933 0-1.833-0.187-2.7-0.56-0.867-0.38-1.633-0.947-2.3-1.7-0.667-0.76-1.2-1.727-1.6-2.9-0.4-1.18-0.6-2.57-0.6-4.17v0c0-2.347 0.427-4.573 1.28-6.68 0.86-2.113 2.06-3.96 3.6-5.54 1.547-1.587 3.377-2.847 5.49-3.78 2.12-0.933 4.447-1.4 6.98-1.4v0c1.233 0 2.483 0.083 3.75 0.25 1.267 0.167 2.517 0.467 3.75 0.9zM45.83-5.73v0c0.567 0 1.117-0.21 1.65-0.63 0.533-0.427 1.037-1.007 1.51-1.74 0.473-0.733 0.91-1.593 1.31-2.58 0.4-0.98 0.743-2.03 1.03-3.15v0l0.9-7.17h-0.45c-1.267 0-2.423 0.283-3.47 0.85-1.04 0.567-1.933 1.337-2.68 2.31-0.753 0.973-1.333 2.107-1.74 3.4-0.407 1.293-0.61 2.673-0.61 4.14v0c0 0.833 0.067 1.54 0.2 2.12 0.133 0.587 0.31 1.06 0.53 1.42 0.227 0.353 0.493 0.613 0.8 0.78 0.313 0.167 0.653 0.25 1.02 0.25zM69.73 0h-7.6l3.15-25.93h4c0.8 0 1.423 0.19 1.87 0.57 0.453 0.373 0.68 0.983 0.68 1.83v0 1.53c1.1-1.467 2.257-2.553 3.47-3.26 1.22-0.713 2.497-1.07 3.83-1.07v0c1.467 0 2.683 0.477 3.65 1.43 0.967 0.947 1.583 2.33 1.85 4.15v0c1.147-1.92 2.403-3.33 3.77-4.23 1.367-0.9 2.91-1.35 4.63-1.35v0c0.967 0 1.843 0.173 2.63 0.52 0.793 0.34 1.47 0.843 2.03 1.51 0.56 0.667 0.993 1.483 1.3 2.45 0.307 0.967 0.46 2.083 0.46 3.35v0c0 0.313-0.013 0.643-0.04 0.99-0.02 0.34-0.047 0.683-0.08 1.03v0l-1.95 16.48h-7.65l1.95-16.48c0.033-0.28 0.057-0.537 0.07-0.77 0.02-0.233 0.03-0.46 0.03-0.68v0c0-0.847-0.133-1.437-0.4-1.77-0.267-0.333-0.667-0.5-1.2-0.5v0c-0.52 0-1.017 0.137-1.49 0.41-0.473 0.273-0.923 0.673-1.35 1.2-0.427 0.527-0.813 1.16-1.16 1.9-0.353 0.74-0.663 1.57-0.93 2.49v0l-1.67 14.2h-7.65l1.95-16.48c0.033-0.28 0.057-0.537 0.07-0.77 0.02-0.233 0.03-0.46 0.03-0.68v0c0-0.847-0.133-1.437-0.4-1.77-0.267-0.333-0.667-0.5-1.2-0.5v0c-0.52 0-1.02 0.14-1.5 0.42-0.487 0.287-0.943 0.697-1.37 1.23-0.42 0.533-0.807 1.18-1.16 1.94-0.347 0.753-0.653 1.597-0.92 2.53v0zM113.8-13.6h-1.82l-1.68 13.6h-8.1l4.45-36.43h11.05c2.233 0 4.137 0.24 5.71 0.72 1.58 0.473 2.87 1.127 3.87 1.96 1 0.833 1.727 1.82 2.18 2.96 0.46 1.14 0.69 2.377 0.69 3.71v0c0 1.353-0.18 2.63-0.54 3.83-0.353 1.2-0.873 2.303-1.56 3.31-0.68 1.007-1.517 1.9-2.51 2.68-0.993 0.773-2.123 1.41-3.39 1.91v0c0.5 0.28 0.97 0.62 1.41 1.02 0.447 0.4 0.793 0.9 1.04 1.5v0l5.3 12.83h-7.35c-0.68 0-1.253-0.133-1.72-0.4-0.467-0.267-0.793-0.65-0.98-1.15v0l-3.95-10.78c-0.18-0.467-0.427-0.793-0.74-0.98-0.307-0.193-0.76-0.29-1.36-0.29zM116.95-30.35h-2.9l-1.37 11.12h2.97c1.167 0 2.16-0.177 2.98-0.53 0.813-0.36 1.473-0.84 1.98-1.44 0.513-0.6 0.88-1.3 1.1-2.1 0.227-0.8 0.34-1.643 0.34-2.53v0c0-0.68-0.1-1.3-0.3-1.86-0.2-0.56-0.513-1.033-0.94-1.42-0.42-0.393-0.953-0.7-1.6-0.92-0.64-0.213-1.393-0.32-2.26-0.32zM157.38-25.18l-3.15 25.18h-4.15c-0.487 0-0.893-0.063-1.22-0.19-0.32-0.127-0.577-0.297-0.77-0.51-0.193-0.22-0.327-0.48-0.4-0.78-0.073-0.3-0.11-0.623-0.11-0.97v0-1.85c-1.067 1.467-2.25 2.617-3.55 3.45-1.3 0.833-2.733 1.25-4.3 1.25v0c-0.933 0-1.833-0.187-2.7-0.56-0.867-0.38-1.633-0.947-2.3-1.7-0.667-0.76-1.2-1.727-1.6-2.9-0.4-1.18-0.6-2.57-0.6-4.17v0c0-2.347 0.427-4.573 1.28-6.68 0.86-2.113 2.06-3.96 3.6-5.54 1.547-1.587 3.377-2.847 5.49-3.78 2.12-0.933 4.447-1.4 6.98-1.4v0c1.233 0 2.483 0.083 3.75 0.25 1.267 0.167 2.517 0.467 3.75 0.9zM142.83-5.73v0c0.567 0 1.117-0.21 1.65-0.63 0.533-0.427 1.037-1.007 1.51-1.74 0.473-0.733 0.91-1.593 1.31-2.58 0.4-0.98 0.743-2.03 1.03-3.15v0l0.9-7.17h-0.45c-1.267 0-2.423 0.283-3.47 0.85-1.04 0.567-1.933 1.337-2.68 2.31-0.753 0.973-1.333 2.107-1.74 3.4-0.407 1.293-0.61 2.673-0.61 4.14v0c0 0.833 0.067 1.54 0.2 2.12 0.133 0.587 0.31 1.06 0.53 1.42 0.227 0.353 0.493 0.613 0.8 0.78 0.313 0.167 0.653 0.25 1.02 0.25zM161.63-5.6v0c0-0.12 0-0.263 0-0.43 0-0.167 0.01-0.403 0.03-0.71 0.027-0.307 0.07-0.713 0.13-1.22 0.06-0.507 0.14-1.18 0.24-2.02v0l1.32-10.6h-2.07c-0.32 0-0.59-0.103-0.81-0.31-0.213-0.207-0.32-0.52-0.32-0.94v0c0-0.013 0.017-0.157 0.05-0.43 0.033-0.28 0.067-0.573 0.1-0.88 0.033-0.307 0.067-0.593 0.1-0.86 0.033-0.267 0.05-0.417 0.05-0.45v0l0.08-0.68 3.92-0.8 2.18-6.32c0.247-0.8 0.81-1.2 1.69-1.2v0h4.21l-0.96 7.57h5.81l-0.66 5.3h-5.79l-1.25 10.18c-0.087 0.68-0.15 1.217-0.19 1.61-0.04 0.393-0.073 0.693-0.1 0.9-0.027 0.207-0.043 0.35-0.05 0.43-0.013 0.073-0.02 0.117-0.02 0.13v0c0 0.487 0.113 0.893 0.34 1.22 0.227 0.32 0.58 0.48 1.06 0.48v0c0.273 0 0.497-0.027 0.67-0.08 0.173-0.06 0.327-0.127 0.46-0.2 0.133-0.08 0.257-0.147 0.37-0.2 0.12-0.06 0.257-0.09 0.41-0.09v0c0.227 0 0.4 0.053 0.52 0.16 0.113 0.107 0.22 0.277 0.32 0.51v0l1.71 3.68c-1.033 0.747-2.143 1.31-3.33 1.69-1.187 0.373-2.377 0.56-3.57 0.56v0c-1 0-1.903-0.137-2.71-0.41-0.793-0.28-1.48-0.68-2.06-1.2-0.573-0.527-1.023-1.157-1.35-1.89-0.32-0.733-0.497-1.567-0.53-2.5z" fill="#bb84e8" fill-rule="nonzero" stroke="none" stroke-width="1" stroke-linecap="butt" stroke-linejoin="miter" stroke-miterlimit="10" stroke-dasharray="" stroke-dashoffset="0" font-family="none" font-weight="none" font-size="none" text-anchor="none" style="mix-blend-mode: normal" data-fill-palette-color="primary" opacity="1"></path><path transform="translate(0,48.8)" d="M16-6.4v0c1.02 0 1.947-0.197 2.78-0.59 0.833-0.393 1.567-0.95 2.2-1.67 0.633-0.727 1.157-1.607 1.57-2.64 0.42-1.033 0.703-2.193 0.85-3.48v0l2.65-21.65h8.15l-2.65 21.65c-0.28 2.22-0.867 4.26-1.76 6.12-0.893 1.853-2.053 3.453-3.48 4.8-1.42 1.34-3.073 2.383-4.96 3.13-1.88 0.753-3.947 1.13-6.2 1.13v0c-2.033 0-3.847-0.31-5.44-0.93-1.587-0.613-2.927-1.483-4.02-2.61-1.093-1.127-1.923-2.473-2.49-4.04-0.567-1.567-0.85-3.29-0.85-5.17v0c0-0.787 0.05-1.597 0.15-2.43v0l2.6-21.65h8.15l-2.65 21.65c-0.033 0.3-0.057 0.597-0.07 0.89-0.02 0.293-0.03 0.58-0.03 0.86v0c0 2.067 0.47 3.69 1.41 4.87 0.947 1.173 2.31 1.76 4.09 1.76zM57.13 0h-7.75l1.95-16.48c0.033-0.267 0.057-0.51 0.07-0.73 0.013-0.227 0.02-0.44 0.02-0.64v0c0-0.887-0.153-1.5-0.46-1.84-0.307-0.34-0.767-0.51-1.38-0.51v0c-0.567 0-1.16 0.173-1.78 0.52-0.613 0.353-1.2 0.847-1.76 1.48-0.56 0.633-1.073 1.403-1.54 2.31-0.467 0.907-0.833 1.91-1.1 3.01v0l-1.42 12.88h-7.75l3.1-25.93h4c0.8 0 1.423 0.19 1.87 0.57 0.453 0.373 0.68 0.983 0.68 1.83v0 2.08c1.247-1.667 2.613-2.897 4.1-3.69 1.48-0.793 3.013-1.19 4.6-1.19v0c0.967 0 1.853 0.177 2.66 0.53 0.807 0.347 1.503 0.86 2.09 1.54 0.58 0.673 1.037 1.5 1.37 2.48 0.333 0.987 0.5 2.12 0.5 3.4v0c0 0.3-0.013 0.61-0.04 0.93-0.02 0.313-0.047 0.637-0.08 0.97v0zM65.33-25.93h7.64l-3.09 25.93h-7.65zM74.42-33.02v0c0 0.613-0.13 1.19-0.39 1.73-0.267 0.54-0.62 1.017-1.06 1.43-0.427 0.407-0.92 0.73-1.48 0.97-0.56 0.24-1.13 0.36-1.71 0.36v0c-0.587 0-1.147-0.12-1.68-0.36-0.533-0.24-1.003-0.563-1.41-0.97-0.407-0.413-0.737-0.89-0.99-1.43-0.247-0.54-0.37-1.117-0.37-1.73v0c0-0.62 0.123-1.203 0.37-1.75 0.253-0.553 0.59-1.04 1.01-1.46 0.427-0.413 0.907-0.74 1.44-0.98 0.533-0.247 1.093-0.37 1.68-0.37v0c0.593 0 1.167 0.117 1.72 0.35 0.553 0.233 1.04 0.56 1.46 0.98 0.427 0.413 0.77 0.897 1.03 1.45 0.253 0.547 0.38 1.14 0.38 1.78zM82.22 0l-6.3-25.93h6.4c0.54 0 0.967 0.13 1.28 0.39 0.313 0.26 0.503 0.58 0.57 0.96v0l1.71 11.63c0.147 0.98 0.27 1.943 0.37 2.89 0.1 0.94 0.183 1.883 0.25 2.83v0c0.3-0.933 0.63-1.867 0.99-2.8 0.353-0.933 0.733-1.907 1.14-2.92v0l4.54-11.63c0.153-0.4 0.42-0.723 0.8-0.97 0.387-0.253 0.803-0.38 1.25-0.38v0h6.16l-12.61 25.93zM122.92-19.55v0c0 1.18-0.233 2.263-0.7 3.25-0.467 0.98-1.277 1.85-2.43 2.61-1.16 0.76-2.72 1.407-4.68 1.94-1.96 0.533-4.423 0.95-7.39 1.25v0c0.033 1.767 0.423 3.057 1.17 3.87 0.74 0.82 1.833 1.23 3.28 1.23v0c0.687 0 1.28-0.06 1.78-0.18 0.5-0.113 0.937-0.263 1.31-0.45 0.373-0.18 0.71-0.37 1.01-0.57 0.3-0.2 0.59-0.393 0.87-0.58 0.273-0.18 0.56-0.33 0.86-0.45 0.3-0.113 0.64-0.17 1.02-0.17v0c0.253 0 0.497 0.063 0.73 0.19 0.233 0.12 0.443 0.28 0.63 0.48v0l2 2.33c-0.92 0.9-1.817 1.68-2.69 2.34-0.873 0.653-1.773 1.193-2.7 1.62-0.927 0.427-1.91 0.74-2.95 0.94-1.047 0.2-2.183 0.3-3.41 0.3v0c-1.54 0-2.95-0.263-4.23-0.79-1.287-0.527-2.39-1.267-3.31-2.22-0.927-0.96-1.643-2.117-2.15-3.47-0.513-1.347-0.77-2.847-0.77-4.5v0c0-1.38 0.157-2.73 0.47-4.05 0.307-1.313 0.747-2.55 1.32-3.71 0.573-1.16 1.277-2.227 2.11-3.2 0.833-0.973 1.773-1.81 2.82-2.51 1.04-0.7 2.18-1.247 3.42-1.64 1.24-0.393 2.56-0.59 3.96-0.59v0c1.387 0 2.617 0.2 3.69 0.6 1.073 0.4 1.977 0.923 2.71 1.57 0.733 0.64 1.293 1.36 1.68 2.16 0.38 0.8 0.57 1.6 0.57 2.4zM113.82-21.05v0c-1.28 0-2.403 0.513-3.37 1.54-0.967 1.02-1.693 2.423-2.18 4.21v0c1.62-0.253 2.93-0.517 3.93-0.79 1-0.273 1.773-0.573 2.32-0.9 0.553-0.327 0.927-0.677 1.12-1.05 0.187-0.373 0.28-0.777 0.28-1.21v0c0-0.433-0.167-0.843-0.5-1.23-0.333-0.38-0.867-0.57-1.6-0.57zM131.82 0h-7.6l3.16-25.93h4c0.793 0 1.417 0.19 1.87 0.57 0.447 0.373 0.67 0.983 0.67 1.83v0 2.95c1-1.767 2.083-3.123 3.25-4.07 1.167-0.953 2.377-1.43 3.63-1.43v0c0.7 0 1.393 0.16 2.08 0.48v0l-1.41 7.17c-0.847-0.367-1.653-0.55-2.42-0.55v0c-1.28 0-2.417 0.58-3.41 1.74-0.993 1.16-1.8 3.023-2.42 5.59v0zM162.68-23.23l-2.01 2.75c-0.233 0.3-0.447 0.517-0.64 0.65-0.207 0.133-0.477 0.2-0.81 0.2v0c-0.333 0-0.66-0.073-0.98-0.22-0.327-0.153-0.677-0.323-1.05-0.51-0.373-0.193-0.8-0.367-1.28-0.52-0.473-0.147-1.017-0.22-1.63-0.22v0c-1.153 0-1.977 0.22-2.47 0.66-0.493 0.44-0.74 1.01-0.74 1.71v0c0 0.453 0.14 0.84 0.42 1.16 0.273 0.313 0.633 0.593 1.08 0.84 0.453 0.253 0.967 0.483 1.54 0.69 0.573 0.207 1.163 0.44 1.77 0.7 0.6 0.26 1.187 0.557 1.76 0.89 0.573 0.333 1.083 0.74 1.53 1.22 0.453 0.487 0.817 1.063 1.09 1.73 0.273 0.667 0.41 1.457 0.41 2.37v0c0 1.3-0.257 2.53-0.77 3.69-0.513 1.16-1.257 2.17-2.23 3.03-0.967 0.853-2.137 1.537-3.51 2.05-1.373 0.507-2.917 0.76-4.63 0.76v0c-0.82 0-1.63-0.083-2.43-0.25-0.8-0.167-1.553-0.393-2.26-0.68-0.707-0.28-1.353-0.617-1.94-1.01-0.58-0.393-1.057-0.813-1.43-1.26v0l1.91-2.85c0.227-0.333 0.497-0.597 0.81-0.79 0.307-0.193 0.683-0.29 1.13-0.29v0c0.42 0 0.78 0.1 1.08 0.3 0.3 0.2 0.627 0.417 0.98 0.65 0.347 0.233 0.763 0.45 1.25 0.65 0.48 0.2 1.113 0.3 1.9 0.3v0c1.093 0 1.907-0.243 2.44-0.73 0.54-0.493 0.81-1.073 0.81-1.74v0c0-0.52-0.14-0.947-0.42-1.28-0.273-0.333-0.633-0.62-1.08-0.86-0.453-0.24-0.963-0.457-1.53-0.65-0.567-0.193-1.15-0.407-1.75-0.64-0.6-0.233-1.183-0.503-1.75-0.81-0.567-0.307-1.077-0.693-1.53-1.16-0.447-0.467-0.807-1.043-1.08-1.73-0.28-0.68-0.42-1.503-0.42-2.47v0c0-1.2 0.223-2.367 0.67-3.5 0.44-1.133 1.097-2.137 1.97-3.01 0.873-0.88 1.963-1.587 3.27-2.12 1.293-0.533 2.807-0.8 4.54-0.8v0c1.74 0 3.287 0.3 4.64 0.9 1.36 0.6 2.483 1.333 3.37 2.2zM166.32-25.93h7.65l-3.09 25.93h-7.66zM175.42-33.02v0c0 0.613-0.13 1.19-0.39 1.73-0.267 0.54-0.62 1.017-1.06 1.43-0.433 0.407-0.927 0.73-1.48 0.97-0.56 0.24-1.13 0.36-1.71 0.36v0c-0.587 0-1.147-0.12-1.68-0.36-0.533-0.24-1.003-0.563-1.41-0.97-0.413-0.413-0.743-0.89-0.99-1.43-0.253-0.54-0.38-1.117-0.38-1.73v0c0-0.62 0.127-1.203 0.38-1.75 0.247-0.553 0.583-1.04 1.01-1.46 0.427-0.413 0.907-0.74 1.44-0.98 0.533-0.247 1.09-0.37 1.67-0.37v0c0.6 0 1.177 0.117 1.73 0.35 0.553 0.233 1.04 0.56 1.46 0.98 0.427 0.413 0.77 0.897 1.03 1.45 0.253 0.547 0.38 1.14 0.38 1.78zM178.72-5.6v0c0-0.12 0-0.263 0-0.43 0-0.167 0.013-0.403 0.04-0.71 0.027-0.307 0.07-0.713 0.13-1.22 0.053-0.507 0.133-1.18 0.24-2.02v0l1.32-10.6h-2.07c-0.32 0-0.59-0.103-0.81-0.31-0.213-0.207-0.32-0.52-0.32-0.94v0c0-0.013 0.017-0.157 0.05-0.43 0.033-0.28 0.067-0.573 0.1-0.88 0.033-0.307 0.067-0.593 0.1-0.86 0.033-0.267 0.05-0.417 0.05-0.45v0l0.08-0.68 3.92-0.8 2.17-6.32c0.253-0.8 0.82-1.2 1.7-1.2v0h4.21l-0.96 7.57h5.8l-0.65 5.3h-5.79l-1.25 10.18c-0.087 0.68-0.15 1.217-0.19 1.61-0.04 0.393-0.073 0.693-0.1 0.9-0.027 0.207-0.043 0.35-0.05 0.43-0.013 0.073-0.02 0.117-0.02 0.13v0c0 0.487 0.113 0.893 0.34 1.22 0.227 0.32 0.58 0.48 1.06 0.48v0c0.267 0 0.49-0.027 0.67-0.08 0.173-0.06 0.327-0.127 0.46-0.2 0.133-0.08 0.257-0.147 0.37-0.2 0.12-0.06 0.253-0.09 0.4-0.09v0c0.233 0 0.41 0.053 0.53 0.16 0.113 0.107 0.22 0.277 0.32 0.51v0l1.71 3.68c-1.04 0.747-2.15 1.31-3.33 1.69-1.187 0.373-2.377 0.56-3.57 0.56v0c-1 0-1.903-0.137-2.71-0.41-0.8-0.28-1.487-0.68-2.06-1.2-0.573-0.527-1.023-1.157-1.35-1.89-0.32-0.733-0.5-1.567-0.54-2.5zM220.93-25.93l-16.8 32.68c-0.273 0.52-0.603 0.897-0.99 1.13-0.393 0.227-0.867 0.34-1.42 0.34v0h-5.8l5.93-10.55-6.43-23.6h6.55c0.553 0 0.967 0.133 1.24 0.4 0.28 0.267 0.47 0.583 0.57 0.95v0l2.25 11.18c0.093 0.48 0.183 0.96 0.27 1.44 0.08 0.473 0.147 0.95 0.2 1.43v0c0.2-0.48 0.417-0.967 0.65-1.46 0.233-0.493 0.457-0.98 0.67-1.46v0l4.81-11.13c0.2-0.38 0.49-0.7 0.87-0.96 0.38-0.26 0.773-0.39 1.18-0.39v0z" fill="#bb84e8" fill-rule="nonzero" stroke="none" stroke-width="1" stroke-linecap="butt" stroke-linejoin="miter" stroke-miterlimit="10" stroke-dasharray="" stroke-dashoffset="0" font-family="none" font-weight="none" font-size="none" text-anchor="none" style="mix-blend-mode: normal" data-fill-palette-color="primary" opacity="1"></path></g></svg></g></svg></g></svg></g></svg></g><g transform="matrix(1,0,0,1,0,0.21433375271645616)"><svg viewBox="0 0 91.03701300179107 85.73350108658357" height="85.73350108658357" width="91.03701300179107"><g><svg xmlns="http://www.w3.org/2000/svg" xmlns:xlink="http://www.w3.org/1999/xlink" version="1.1" x="0" y="0" viewBox="0.49961997299144484 0.49948360421744703 88.60267202627652 83.44097667494361" enable-background="new 0 0 89.604 84.441" xml:space="preserve" width="91.03701300179107" height="85.73350108658357" class="icon-icon-0" data-fill-palette-color="accent" id="icon-0"><g fill="#000000" data-fill-palette-color="accent"><g fill="#000000" data-fill-palette-color="accent"><path d="M37.469 30.387c0.867 0 1.571 0.518 1.571 1.18 0 0.639-0.704 1.183-1.571 1.183-0.869 0-1.553-0.544-1.553-1.183C35.916 30.907 36.6 30.387 37.469 30.387z" fill="#000000" data-fill-palette-color="accent"></path></g><g fill="#000000" data-fill-palette-color="accent"><path fill="none" stroke="#000000" stroke-linecap="round" stroke-linejoin="round" d="M38.049 13.446c14.595 7.18-14.909 8.056-0.869 14.948"></path><path fill="none" stroke="#000000" stroke-linecap="round" stroke-linejoin="round" d="M37 28.385c-2.217 0-4.002 1.529-4.002 3.423 0 1.892 1.785 3.438 4.002 3.438 2.222 0 4.022-1.546 4.022-3.438 0-1.042-0.561-1.959-1.414-2.579-0.007-0.009-0.007-0.009-0.016-0.009-0.034-0.032-0.074-0.067-0.114-0.09"></path><path fill="none" stroke="#000000" stroke-linecap="round" stroke-linejoin="round" d="M35.916 31.567c0 0.639 0.684 1.183 1.555 1.183 0.868 0 1.57-0.544 1.57-1.183 0-0.662-0.705-1.18-1.57-1.18C36.6 30.387 35.916 30.907 35.916 31.567z"></path></g></g><line fill="none" stroke="#000000" stroke-linecap="round" stroke-linejoin="round" x1="20" y1="38.549" x2="51.957" y2="39.336"></line><path fill="none" stroke="#000000" stroke-linecap="round" stroke-linejoin="round" d="M24.494 39.104"></path><path fill="none" stroke="#000000" stroke-linecap="round" stroke-linejoin="round" d="M7.045 23.905c3.809 5.822 9.896 15.322 13.705 21.145"></path><line fill="none" stroke="#000000" stroke-linecap="round" stroke-linejoin="round" x1="20.75" y1="45.049" x2="22.75" y2="38.799"></line><path fill="none" stroke="#000000" stroke-linecap="round" stroke-linejoin="round" d="M28.698 22.358c0.2 0.012 0.399 0.026 0.604 0.026 4.577 0 8.288-3.271 8.288-7.306 0-4.035-3.711-7.307-8.288-7.307s-8.287 3.271-8.287 7.307"></path><path fill="none" stroke="#000000" stroke-linecap="round" stroke-linejoin="round" d="M5.811 20.651"></path><path fill="none" stroke="#000000" stroke-linecap="round" stroke-linejoin="round" d="M46.033 1.28"></path><path fill="none" stroke="#000000" stroke-linecap="round" stroke-linejoin="round" d="M51.16 23.67c0 7.236 6.835 13.104 15.267 13.104"></path><line fill="none" stroke="#000000" stroke-linecap="round" stroke-linejoin="round" x1="80.328" y1="20.651" x2="72.695" y2="32.957"></line><line fill="none" stroke="#000000" stroke-linecap="round" stroke-linejoin="round" x1="77.48" y1="32.729" x2="63.113" y2="42.241"></line><line fill="none" stroke="#000000" stroke-linecap="round" stroke-linejoin="round" x1="64.456" y1="36.788" x2="63.124" y2="41.844"></line><line fill="none" stroke="#000000" stroke-linecap="round" stroke-linejoin="round" x1="73.463" y1="31.969" x2="77.256" y2="32.601"></line><line fill="none" stroke="#000000" stroke-linecap="round" stroke-linejoin="round" x1="39.568" y1="28.966" x2="52.051" y2="39.081"></line><path fill="none" stroke="#000000" stroke-linecap="round" stroke-linejoin="round" d="M3.711 26.715c-9.203 20.975 2.281 45.1 22.894 53.755 23.347 9.803 53.983-1.773 61.024-27.018 3.152-11.298 1.164-23.512-5.174-33.347C75.861 9.87 65.424 3.688 53.594 1.427 44.18-0.372 34.311 0.363 25.535 4.362c-4.188 1.908-8.38 4.759-11.841 7.795-3.268 2.867-7.454 6.697-6.808 11.429"></path><line fill="none" stroke="#000000" stroke-linecap="round" stroke-linejoin="round" x1="55.25" y1="33.049" x2="49" y2="36.049"></line></svg></g></svg></g></svg></g></svg></g></svg></g><defs></defs></svg><rect width="320" height="360" fill="none" stroke="none" visibility="hidden"></rect></g></svg></g></svg>